<?xml version="1.0" encoding="UTF-8"?>
<svg version="1.1" xmlns="http://www.w3.org/2000/svg" width="3335" height="1132">
<path d="M0 0 C1001.22 0 2002.44 0 3034 0 C3020.04654071 53.27684457 3020.04654071 53.27684457 3014.87329102 72.90917969 C3014.6448755 73.77612331 3014.41645998 74.64306694 3014.18112278 75.53628159 C3013.45418868 78.29504922 3012.727104 81.05377714 3012 83.8125 C3011.74966381 84.76249374 3011.49932762 85.71248749 3011.24140549 86.69126892 C3002.47446659 119.95847834 2993.61276609 153.19973351 2984.71035385 186.43091583 C2976.16542129 218.32925374 2967.69794135 250.24686834 2959.3125 282.1875 C2951.31156282 312.66246233 2943.25755379 343.12238674 2935.125 373.5625 C2933.12977243 381.03113362 2931.13478676 388.49983172 2929.140625 395.96875 C2928.8911165 396.90325359 2928.64160801 397.83775719 2928.38453865 398.80057907 C2922.17953109 422.0452401 2916.0263637 445.30359674 2909.875 468.5625 C2907.60306401 477.15239651 2905.3309712 485.74225152 2903.05859375 494.33203125 C2902.77281149 495.41233423 2902.48702923 496.49263721 2902.1925869 497.60567665 C2895.12385795 524.32477731 2888.03160645 551.03762805 2880.9375 577.75 C2880.62268047 578.93544529 2880.30786095 580.12089058 2879.98350143 581.34225845 C2878.39871869 587.30970377 2876.81391329 593.27714308 2875.22911072 599.24458313 C2874.91761518 600.4174972 2874.60611965 601.59041126 2874.28518486 602.79886818 C2873.65812431 605.16000396 2873.03105549 607.52113754 2872.40397835 609.88226891 C2868.04764621 626.28532134 2863.69415164 642.6891237 2859.34375 659.09375 C2858.80530874 661.12406432 2858.26686677 663.15437845 2857.72842407 665.18469238 C2856.92726208 668.20567002 2856.12610224 671.22664824 2855.32494545 674.24762726 C2847.85426208 702.4177565 2840.37917466 730.58669139 2832.8828125 758.75 C2832.58301798 759.87631584 2832.28322346 761.00263168 2831.97434425 762.16307831 C2829.53075486 771.34334662 2827.08693591 780.52355382 2824.64307785 789.70375061 C2815.56779263 823.79522669 2806.52028103 857.89393057 2797.5 892 C2786.86169244 932.22360072 2776.18314368 972.43637926 2765.47558594 1012.64160156 C2764.2831687 1017.11913146 2763.09079402 1021.59667268 2761.8984375 1026.07421875 C2761.60726044 1027.16757664 2761.31608337 1028.26093452 2761.01608276 1029.38742447 C2757.10415925 1044.07777383 2753.20326313 1058.7709987 2749.31388474 1073.46733284 C2747.82400403 1079.09594833 2746.33252459 1084.72414048 2744.84117317 1090.35236645 C2743.46681263 1095.54016534 2742.0954431 1100.72874292 2740.72634697 1105.91793346 C2739.90183214 1109.04030578 2739.07457161 1112.16194547 2738.24650192 1115.28337669 C2737.86728447 1116.71527343 2737.48927068 1118.14748956 2737.11253738 1119.58004189 C2736.60515315 1121.50893461 2736.0932469 1123.43663621 2735.58105469 1125.36425781 C2735.2976825 1126.43669739 2735.0143103 1127.50913696 2734.72235107 1128.61407471 C2734 1131 2734 1131 2733 1132 C2730.289639 1132.09958 2727.60472591 1132.13282052 2724.89384329 1132.12467116 C2724.02753333 1132.12600042 2723.16122337 1132.12732967 2722.26866159 1132.1286992 C2719.31965836 1132.13197392 2716.3707067 1132.12802389 2713.42170471 1132.1241985 C2711.29223926 1132.12506292 2709.16277395 1132.12636615 2707.033309 1132.12807148 C2701.11530896 1132.1315137 2695.19732549 1132.12863977 2689.27932627 1132.12483745 C2682.84206612 1132.12179417 2676.40480811 1132.12452655 2669.96754792 1132.12654433 C2658.61975634 1132.12946737 2647.27196933 1132.1283069 2635.924178 1132.12488318 C2623.67524989 1132.12120804 2611.4263244 1132.11972407 2599.17739577 1132.12089889 C2598.40244803 1132.12097188 2597.62750029 1132.12104487 2596.82906928 1132.12112007 C2592.87268589 1132.12150254 2588.9163025 1132.12192015 2584.95991911 1132.12234976 C2556.01454353 1132.12541732 2527.06916987 1132.12354063 2498.12379456 1132.11920547 C2468.77083374 1132.11482548 2439.41787395 1132.11262302 2410.0649128 1132.11310768 C2409.14041329 1132.11312197 2408.21591378 1132.11313626 2407.26339914 1132.11315099 C2398.79140446 1132.11328273 2390.31940978 1132.11343884 2381.8474151 1132.11362399 C2360.59971917 1132.11408718 2339.35202325 1132.1142196 2318.10432732 1132.11413276 C2316.64359178 1132.11412714 2316.64359178 1132.11412714 2315.15334644 1132.11412141 C2267.10551076 1132.11390705 2219.05767547 1132.10993739 2171.00984001 1132.10573006 C2154.08847324 1132.10425092 2137.16710647 1132.10278959 2120.2457397 1132.10139394 C2119.19389674 1132.10130717 2118.14205379 1132.1012204 2117.05833681 1132.10113101 C2068.36104546 1132.09713578 2019.66375415 1132.09570242 1970.96646265 1132.09492797 C1967.78277301 1132.09487721 1964.59908337 1132.09482524 1961.41539373 1132.09477296 C1942.21806702 1132.09445887 1923.02074031 1132.0941715 1903.82341359 1132.09391499 C1856.09591943 1132.09327609 1808.36842528 1132.0923166 1760.64093113 1132.09113979 C1759.55431336 1132.09111316 1758.46769559 1132.09108653 1757.34815001 1132.09105909 C1686.95357839 1132.08933111 1616.5590069 1132.0862831 1546.16443539 1132.08213139 C1545.04028046 1132.0820651 1543.91612554 1132.08199881 1542.75790532 1132.08193051 C1508.53678422 1132.07990977 1474.31566312 1132.0777914 1440.09454202 1132.07565394 C1402.22442531 1132.073289 1364.35430861 1132.0709407 1326.48419189 1132.06866455 C1325.34544376 1132.06859605 1324.20669562 1132.06852755 1323.03343996 1132.06845698 C1214.90388621 1132.06195812 1106.77433243 1132.05814641 998.64477854 1132.05503077 C994.06551023 1132.05489862 989.48624192 1132.0547657 984.90697361 1132.05463275 C942.76796332 1132.05340936 900.62895302 1132.05221752 858.48994273 1132.05106533 C857.36944089 1132.05103469 856.24893905 1132.05100405 855.09448262 1132.05097248 C851.70190461 1132.05087972 848.30932661 1132.05078697 844.91674861 1132.05069422 C753.2614746 1132.04818828 661.6062006 1132.04540708 569.9509266 1132.04244758 C566.71695842 1132.04234323 563.48299025 1132.04223909 560.24902208 1132.04213501 C455.20281942 1132.03875344 350.1566168 1132.03487597 -22.50415039 1132.01586914 C-23.86847409 1132.0157942 -23.86847409 1132.0157942 -25.26035989 1132.01571775 C-110.68925789 1132.01102496 -196.11815589 1132.00619028 -301 1132 C-299.92340194 1123.17972978 -299.92340194 1123.17972978 -299.04986572 1119.93708801 C-298.86329155 1119.234058 -298.67671738 1118.53102798 -298.48448944 1117.80669403 C-298.28110207 1117.06200111 -298.07771469 1116.3173082 -297.86816406 1115.55004883 C-297.54181347 1114.32955463 -297.54181347 1114.32955463 -297.20886993 1113.08440399 C-296.48278741 1110.37391006 -295.74917085 1107.66551402 -295.015625 1104.95703125 C-294.49130597 1103.00519373 -293.96749539 1101.05321956 -293.44415283 1099.10112 C-292.31430909 1094.89049611 -291.18123909 1090.68075884 -290.0456543 1086.47167969 C-288.22095416 1079.70783942 -286.40365229 1072.94202582 -284.58789062 1066.17578125 C-283.96118384 1063.8406061 -283.33447484 1061.50543154 -282.70776367 1059.17025757 C-282.39386688 1058.00059826 -282.07997009 1056.83093895 -281.75656128 1055.62583542 C-280.78784767 1052.01715236 -279.8184408 1048.40865613 -278.84887695 1044.80020142 C-272.62755438 1021.6416819 -266.46193519 998.46847182 -260.30480957 975.29281616 C-257.26773492 963.86133807 -254.22802005 952.43056212 -251.1875 941 C-250.88709053 939.87061193 -250.58668106 938.74122387 -250.27716827 937.57761192 C-243.43055843 911.84051982 -236.55014488 886.11249403 -229.66662598 860.38525391 C-220.58214055 826.43117483 -211.53089159 792.46837158 -202.5 758.5 C-192.9168117 722.45424554 -183.30687019 686.41579021 -173.66662598 650.38525391 C-164.58214055 616.43117483 -155.53089159 582.46837158 -146.5 548.5 C-136.9168117 512.45424554 -127.30687019 476.41579021 -117.66662598 440.38525391 C-108.58214055 406.43117483 -99.53089159 372.46837158 -90.5 338.5 C-80.6429834 301.42428061 -70.75697035 264.35646498 -60.84005737 227.29672241 C-54.39736885 203.21954851 -47.96809606 179.13889174 -41.56640625 155.05078125 C-40.93252812 152.66604548 -40.2986475 150.28131038 -39.6647644 147.89657593 C-36.00843104 134.14002738 -36.00843104 134.14002738 -32.35644531 120.38232422 C-21.70091671 80.21893703 -10.84176788 40.11454115 0 0 Z " fill="#650093" transform="translate(301,0)"/>
<path d="M0 0 C282.48 0 564.96 0 856 0 C842.04654071 53.27684457 842.04654071 53.27684457 836.87329102 72.90917969 C836.6448755 73.77612331 836.41645998 74.64306694 836.18112278 75.53628159 C835.45418868 78.29504922 834.727104 81.05377714 834 83.8125 C833.74966381 84.76249374 833.49932762 85.71248749 833.24140549 86.69126892 C824.47446659 119.95847834 815.61276609 153.19973351 806.71035385 186.43091583 C798.16542129 218.32925374 789.69794135 250.24686834 781.3125 282.1875 C773.31156282 312.66246233 765.25755379 343.12238674 757.125 373.5625 C755.12977243 381.03113362 753.13478676 388.49983172 751.140625 395.96875 C750.8911165 396.90325359 750.64160801 397.83775719 750.38453865 398.80057907 C744.17953109 422.0452401 738.0263637 445.30359674 731.875 468.5625 C729.60306401 477.15239651 727.3309712 485.74225152 725.05859375 494.33203125 C724.77281149 495.41233423 724.48702923 496.49263721 724.1925869 497.60567665 C717.12385795 524.32477731 710.03160645 551.03762805 702.9375 577.75 C702.46527071 579.52816793 702.46527071 579.52816793 701.98350143 581.34225845 C700.39871869 587.30970377 698.81391329 593.27714308 697.22911072 599.24458313 C696.91761518 600.4174972 696.60611965 601.59041126 696.28518486 602.79886818 C695.65812431 605.16000396 695.03105549 607.52113754 694.40397835 609.88226891 C690.04764621 626.28532134 685.69415164 642.6891237 681.34375 659.09375 C680.80530874 661.12406432 680.26686677 663.15437845 679.72842407 665.18469238 C678.92726208 668.20567002 678.12610224 671.22664824 677.32494545 674.24762726 C669.85426208 702.4177565 662.37917466 730.58669139 654.8828125 758.75 C654.58301798 759.87631584 654.28322346 761.00263168 653.97434425 762.16307831 C651.53075486 771.34334662 649.08693591 780.52355382 646.64307785 789.70375061 C637.56779263 823.79522669 628.52028103 857.89393057 619.5 892 C608.86169244 932.22360072 598.18314368 972.43637926 587.47558594 1012.64160156 C586.2831687 1017.11913146 585.09079402 1021.59667268 583.8984375 1026.07421875 C583.46167191 1027.71425558 583.46167191 1027.71425558 583.01608276 1029.38742447 C579.10415925 1044.07777383 575.20326313 1058.7709987 571.31388474 1073.46733284 C569.82400403 1079.09594833 568.33252459 1084.72414048 566.84117317 1090.35236645 C565.46681263 1095.54016534 564.0954431 1100.72874292 562.72634697 1105.91793346 C561.90183214 1109.04030578 561.07457161 1112.16194547 560.24650192 1115.28337669 C559.86728447 1116.71527343 559.48927068 1118.14748956 559.11253738 1119.58004189 C558.60515315 1121.50893461 558.0932469 1123.43663621 557.58105469 1125.36425781 C557.2976825 1126.43669739 557.0143103 1127.50913696 556.72235107 1128.61407471 C556 1131 556 1131 555 1132 C552.855177 1132.09845664 550.70703426 1132.124471 548.55995268 1132.1241985 C547.87466368 1132.12547658 547.18937468 1132.12675467 546.48331935 1132.12807148 C544.15347092 1132.13116956 541.82368844 1132.12704991 539.49384212 1132.12304783 C537.81282984 1132.12378654 536.1318177 1132.12496413 534.45080599 1132.12654433 C529.78806787 1132.12963444 525.1253513 1132.12642089 520.46261478 1132.12226619 C515.40639657 1132.11884983 510.35018069 1132.12119937 505.29396206 1132.12284368 C496.4179768 1132.12492368 487.54199821 1132.12326303 478.66601372 1132.11920547 C465.46759583 1132.11318866 452.26918218 1132.11286797 439.07076317 1132.11374746 C416.87260286 1132.11506369 394.67444522 1132.1117184 372.47628593 1132.10573006 C350.48613915 1132.09981198 328.4959936 1132.09595585 306.50584602 1132.09487724 C305.82346565 1132.09484283 305.14108527 1132.09480842 304.4380267 1132.09477296 C298.20573243 1132.09445977 291.97343817 1132.09417208 285.74114389 1132.09391499 C270.24685044 1132.09327551 254.75255701 1132.09231614 239.25826359 1132.09113979 C238.19978146 1132.09105982 238.19978146 1132.09105982 237.11991585 1132.09097823 C202.77566284 1132.08835533 168.43141064 1132.08204721 134.0871582 1132.07543945 C122.16569011 1132.07314784 110.24422201 1132.07087249 98.32275391 1132.06866455 C97.58340518 1132.0685276 96.84405645 1132.06839065 96.08230321 1132.06824955 C61.72583297 1132.06190803 27.36936258 1132.05818071 -6.98710809 1132.05512976 C-9.21695915 1132.05493169 -11.4468102 1132.0547325 -13.67666126 1132.05453308 C-28.45373056 1132.05321332 -43.23079986 1132.05193867 -58.00786917 1132.05069422 C-87.41174874 1132.04821757 -116.81562828 1132.04547589 -146.21950781 1132.04255217 C-147.6198661 1132.04241293 -149.0202244 1132.04227388 -150.42058269 1132.04213501 C-236.80740626 1132.03356622 -323.19422892 1132.01921504 -430 1132 C-429.68984131 1130.41711504 -429.37788462 1128.83458233 -429.06518555 1127.25219727 C-428.89166061 1126.37088638 -428.71813568 1125.4895755 -428.53935242 1124.58155823 C-427.787847 1120.98455015 -426.82611492 1117.46796519 -425.8125 1113.9375 C-425.36841943 1112.36590524 -424.92441332 1110.79428944 -424.48046875 1109.22265625 C-424.123479 1107.96606201 -424.123479 1107.96606201 -423.75927734 1106.68408203 C-422.95246857 1103.8319741 -422.15675244 1100.97694003 -421.36328125 1098.12109375 C-418.47310225 1087.72811852 -415.53678913 1077.35114187 -412.5 1067 C-408.89094227 1054.69676049 -405.43614223 1042.35247112 -402 1030 C-398.28601332 1016.64871529 -394.52580578 1003.31509346 -390.625 990.01708984 C-387.31478344 978.70656753 -384.15830638 967.35368847 -381 956 C-377.28601332 942.64871529 -373.52580578 929.31509346 -369.625 916.01708984 C-366.31478344 904.70656753 -363.15830638 893.35368847 -360 882 C-356.28601332 868.64871529 -352.52580578 855.31509346 -348.625 842.01708984 C-345.31478344 830.70656753 -342.15830638 819.35368847 -339 808 C-335.2402864 794.48433314 -331.43150988 780.98714251 -327.484375 767.52490234 C-325.14180667 759.52244622 -322.89350632 751.4970631 -320.67871094 743.45849609 C-316.77351489 729.31269601 -312.80174145 715.18757512 -308.66064453 701.10888672 C-305.71642609 691.08907592 -302.86220896 681.04347461 -300 671 C-266.76746489 670.27571833 -233.55249351 669.90315229 -200.3125 669.9375 C-199.4781266 669.93835602 -198.6437532 669.93921204 -197.78409576 669.94009399 C-187.52270743 669.95141052 -177.26135518 669.97137598 -167 670 C-166.78965118 669.01690353 -166.57930237 668.03380707 -166.36257935 667.0209198 C-163.29166255 652.85142117 -159.76817827 638.80014568 -156.2421875 624.73828125 C-155.57946676 622.08931499 -154.91741669 619.44018121 -154.25531006 616.7910614 C-152.67630877 610.47532715 -151.0946762 604.16025483 -149.51200581 597.84543914 C-148.23071823 592.73289769 -146.95056118 587.62007427 -145.67108154 582.50708008 C-137.70134633 550.65983287 -129.71946512 518.8158191 -121.625 487 C-114.39482843 458.58084969 -107.24869438 430.14089508 -100.12810516 401.6940918 C-99.26314018 398.23997348 -98.39725162 394.78608802 -97.53106689 391.33227539 C-90.05755725 361.65348935 -90.05755725 361.65348935 -83.04663086 331.86334229 C-80.36169316 320.05035811 -77.32381995 308.32592658 -74.31469727 296.59228516 C-72.42417123 289.21891634 -70.54706178 281.84212634 -68.671875 274.46484375 C-68.47743805 273.70004574 -68.2830011 272.93524773 -68.08267212 272.14727402 C-63.98565786 256.02212513 -60.00485513 239.86920799 -56.04218674 223.71061707 C-47.78877982 190.0596239 -39.33400639 156.46102434 -30.8203125 122.875 C-20.45189123 81.93975491 -10.24202998 40.9681199 0 0 Z " fill="#FED100" transform="translate(2479,0)"/>
<path d="M0 0 C15.3577182 13.18566978 25.52619449 30.7676121 28 51 C28.08674988 53.7322551 28.13114425 56.43757895 28.12025452 59.16880798 C28.12153615 60.35996785 28.12153615 60.35996785 28.12284368 61.57519156 C28.12448317 64.22064262 28.1190023 66.86602945 28.11352539 69.51147461 C28.11324316 71.41396076 28.11340195 73.31644702 28.1139679 75.21893311 C28.11425448 80.37332245 28.10838018 85.52768847 28.10139394 90.6820724 C28.09513729 96.07259804 28.09455477 101.46312424 28.09336853 106.85365295 C28.09026203 117.05676516 28.08205782 127.25986664 28.07201904 137.46297413 C28.06083675 149.08080998 28.05534212 160.69864635 28.05032361 172.31648624 C28.03987465 196.21099677 28.02228839 220.10549778 28 244 C29.01453121 243.99723462 30.02906242 243.99446924 31.07433701 243.99162006 C55.78866762 243.92494726 80.50298653 243.87568754 105.21738815 243.84456348 C117.1692093 243.82911111 129.12097095 243.80805272 141.07275391 243.77368164 C151.49296302 243.74372943 161.91312902 243.72441316 172.33337998 243.71773452 C177.84805785 243.71383213 183.36261242 243.70469491 188.87725067 243.68280983 C194.07448628 243.66235271 199.27154852 243.65618479 204.46882057 243.66067696 C206.36983242 243.65985587 208.27085045 243.65394549 210.17182732 243.64238358 C220.20792973 243.58436942 229.36038663 243.80268135 239 247 C240.68802734 247.54720703 240.68802734 247.54720703 242.41015625 248.10546875 C249.77711173 251.11083939 255.81386355 255.01750096 262 260 C262.78246094 260.60585938 263.56492187 261.21171875 264.37109375 261.8359375 C278.07930557 273.09710284 286.86458354 290.54605883 289 308 C290.62227953 328.06966415 285.99013264 347.19959668 272.8671875 362.91796875 C272.25101563 363.60503906 271.63484375 364.29210937 271 365 C270.32195313 365.75925781 269.64390625 366.51851562 268.9453125 367.30078125 C257.37390749 379.55164598 240.95954821 388.64044472 223.89580917 389.17955399 C218.76573686 389.27217727 213.63599352 389.24766436 208.50537109 389.22705078 C206.53347784 389.22648599 204.56158417 389.22680456 202.58969116 389.22793579 C197.25983757 389.22850764 191.93007472 389.21678054 186.60024214 389.20278788 C181.02155491 389.19025249 175.4428654 389.18910781 169.86416626 389.18673706 C159.31052106 389.18053054 148.75691749 389.16413092 138.20329058 389.14403808 C126.18394615 389.12165331 114.16459969 389.11067917 102.14523959 389.10064721 C77.43013668 389.07976396 52.71507068 389.0446041 28 389 C28.00368717 389.9911509 28.00737434 390.98230181 28.01117325 392.00348759 C28.10014048 416.16807101 28.16578305 440.33263308 28.20724869 464.49734592 C28.22783635 476.18342996 28.25588416 487.86940553 28.30175781 499.55541992 C28.34174201 509.7460295 28.36746038 519.93656047 28.37635398 530.12724632 C28.38154914 535.51854465 28.39368003 540.90961821 28.42292023 546.30084419 C28.45027261 551.38568011 28.45840529 556.4702008 28.45243073 561.5551033 C28.45352216 563.41132387 28.46135701 565.26755608 28.4768219 567.12371254 C28.59036005 581.46667631 27.06242625 594.48257243 20.1875 607.375 C19.66820923 608.37575562 19.66820923 608.37575562 19.13842773 609.39672852 C16.29179968 614.74188268 13.08020302 619.50827436 9 624 C8.35804688 624.73347656 7.71609375 625.46695313 7.0546875 626.22265625 C-2.74214711 636.76057982 -14.36481871 642.9241775 -28 647 C-29.04414063 647.36480469 -30.08828125 647.72960937 -31.1640625 648.10546875 C-49.96605187 652.49004672 -70.88156509 649.04959287 -87.39453125 639.32421875 C-105.62964151 627.91807634 -117.02180033 611.21225241 -122.16785431 590.31634331 C-123.8644078 582.42370268 -123.57021243 574.33668469 -123.54589844 566.30493164 C-123.5546526 564.37170081 -123.56514473 562.43847719 -123.57722473 560.50526428 C-123.60487973 555.30378046 -123.60849398 550.10253545 -123.60750484 544.90098882 C-123.6106517 539.44772815 -123.63630655 533.99457227 -123.65948486 528.54136658 C-123.69991326 518.23582096 -123.72035453 507.93033841 -123.73345876 497.62472576 C-123.74937355 485.8833116 -123.7878079 474.14200409 -123.82805204 462.40065205 C-123.91027075 438.26713724 -123.9644753 414.13362556 -124 390 C-125.02299509 389.99853344 -126.04599018 389.99706688 -127.09998512 389.99555588 C-152.03209388 389.95890377 -176.9640689 389.89937938 -201.89606667 389.81609726 C-213.95317421 389.77634741 -226.01021687 389.74393431 -238.06738281 389.72900391 C-248.58070876 389.7159664 -259.09389169 389.68894811 -269.60713708 389.64538693 C-275.16993304 389.62281944 -280.73255292 389.6070865 -286.29539871 389.60811615 C-291.54036297 389.60886554 -296.78493867 389.59080292 -302.02980232 389.55883217 C-303.94607201 389.55037234 -305.86238548 389.54855635 -307.77866554 389.55419731 C-330.2355436 389.6114553 -347.82230709 383.58497999 -364.3359375 367.76171875 C-380.55427357 350.85147415 -384.62232503 331.5302063 -384.33984375 308.75 C-383.75892721 291.2791159 -374.90965536 277.2737995 -363 265 C-362.44828125 264.37480469 -361.8965625 263.74960937 -361.328125 263.10546875 C-351.95449974 252.82696382 -337.63323482 246.19099522 -324 244 C-321.26037678 243.89839007 -318.54556322 243.84529071 -315.80595398 243.84178162 C-314.57448009 243.83437465 -314.57448009 243.83437465 -313.31812793 243.82681805 C-310.5697533 243.81147144 -307.82140199 243.80309011 -305.07299805 243.79467773 C-303.10184016 243.78509698 -301.13068433 243.77508678 -299.15953064 243.76467896 C-293.80877079 243.73764521 -288.45800214 243.71662733 -283.10721183 243.69667697 C-277.51512787 243.67480801 -271.92307101 243.64742376 -266.33100891 243.62062073 C-255.74181603 243.57070618 -245.1526081 243.52576274 -234.56338578 243.48259836 C-222.50785857 243.43321543 -210.45235854 243.37830121 -198.39685762 243.32291877 C-173.59793045 243.20911772 -148.7989772 243.10227457 -124 243 C-123.99945523 241.99430969 -123.99891047 240.98861938 -123.99834919 239.95245361 C-123.98392364 215.42854671 -123.94078244 190.90481667 -123.86790943 166.38101196 C-123.83332569 154.52123986 -123.8079126 142.6615832 -123.80444336 130.80175781 C-123.80139426 120.45905709 -123.78077687 110.1165623 -123.73947543 99.77394104 C-123.71822957 94.30270169 -123.70550142 88.8317545 -123.71384621 83.36047363 C-123.72143977 78.19915296 -123.70534972 73.03842165 -123.67193985 67.87720871 C-123.6637701 65.99402985 -123.66388058 64.11079167 -123.67340279 62.22761917 C-123.76931737 41.15400318 -118.18136458 22.78221205 -103.2734375 7.23828125 C-102.52320312 6.49964844 -101.77296875 5.76101563 -101 5 C-100.29101562 4.29230469 -99.58203125 3.58460938 -98.8515625 2.85546875 C-72.00284893 -22.49087998 -28.61254144 -22.25887415 0 0 Z " fill="#650093" transform="translate(2793,288)"/>
<path d="M0 0 C8.80155533 5.49546193 14.67702864 12.74891001 17.12923694 22.9561432 C17.64122217 26.01822124 17.7177575 28.89343241 17.72127151 31.99858379 C17.72511266 33.27381143 17.7289538 34.54903907 17.73291135 35.86290997 C17.73213115 37.27585015 17.73125237 38.68879028 17.73028564 40.10173035 C17.73286999 41.6044716 17.73588334 43.10721217 17.73928905 44.60995179 C17.74735418 48.74092681 17.74914835 52.87188444 17.74988651 57.00286639 C17.75173791 61.45768552 17.75928569 65.91249565 17.76602173 70.36730957 C17.77960212 80.10910854 17.78562931 89.8509034 17.79003239 99.59271026 C17.7927953 105.67593139 17.79703275 111.75915093 17.80153656 117.84237099 C17.81372884 134.68616098 17.82402824 151.5299497 17.82741165 168.37374401 C17.82763122 169.45173089 17.82785078 170.52971777 17.828077 171.64037092 C17.82829528 172.72093185 17.82851356 173.80149277 17.82873845 174.91479796 C17.82918192 177.10441283 17.82962848 179.29402771 17.83007812 181.48364258 C17.83029955 182.56976636 17.83052098 183.65589014 17.83074912 184.77492676 C17.83469692 202.37299064 17.85215057 219.97101312 17.87543765 237.569061 C17.899155 255.63816752 17.91161368 273.70725326 17.91277957 291.77637559 C17.91369611 301.9209238 17.91944325 312.06541806 17.93759918 322.2099514 C17.95300533 330.84847527 17.95811758 339.48692851 17.94986108 348.12546351 C17.94595641 352.53174514 17.94687524 356.93788454 17.96091843 361.34414864 C17.9736682 365.38156148 17.97245044 369.41872538 17.96032771 373.45613793 C17.95837258 374.9130905 17.96144066 376.37006077 17.97017208 377.82698848 C18.04506514 391.17367158 16.06261069 401.28012352 7.06640625 411.4296875 C0.28233661 417.91591993 -8.31448542 420.99038701 -17.59765625 421.2109375 C-29.39925416 420.71758137 -37.04335025 416.4510999 -45.16015625 408.0234375 C-54.19083523 396.93095966 -53.21103633 383.32833665 -53.41015625 369.7109375 C-53.88324219 370.31679688 -54.35632812 370.92265625 -54.84375 371.546875 C-75.80248587 398.10277815 -102.47360565 419.24651961 -137.046875 423.43359375 C-143.1768618 423.9072264 -149.32757001 423.92356547 -155.47265625 423.9609375 C-156.6440918 423.97036377 -157.81552734 423.97979004 -159.02246094 423.98950195 C-166.98825567 423.95992874 -174.58059192 423.15920372 -182.41015625 421.7109375 C-183.12953369 421.58090332 -183.84891113 421.45086914 -184.59008789 421.31689453 C-209.37281438 416.49957436 -231.07490146 403.66611935 -249.41015625 386.7109375 C-250.24160156 385.95039063 -251.07304688 385.18984375 -251.9296875 384.40625 C-277.44478032 360.00828034 -291.59910239 324.30415224 -295.41015625 289.7109375 C-295.50369385 288.86337891 -295.59723145 288.01582031 -295.69360352 287.14257812 C-299.98690268 244.56767883 -291.87213249 199.77167462 -266.41015625 164.7109375 C-265.84296875 163.91945313 -265.27578125 163.12796875 -264.69140625 162.3125 C-243.28644256 134.05419267 -211.61982602 114.71290887 -176.51367188 109.42529297 C-143.51479582 105.14340538 -111.00521842 110.84485797 -83.33984375 129.81640625 C-80.93979398 131.70108483 -78.6655801 133.65617413 -76.41015625 135.7109375 C-75.13785156 136.8246875 -75.13785156 136.8246875 -73.83984375 137.9609375 C-67.50684851 143.55665867 -61.24369195 149.10940665 -56.20703125 155.92578125 C-55.67948242 156.63726318 -55.15193359 157.34874512 -54.60839844 158.08178711 C-54.21297852 158.61940674 -53.81755859 159.15702637 -53.41015625 159.7109375 C-53.40657372 158.6811336 -53.40657372 158.6811336 -53.40291882 157.63052559 C-53.34367995 140.89478262 -53.26807333 124.15920076 -53.17444134 107.42361641 C-53.12955201 99.33027578 -53.09012167 91.23697849 -53.0637207 83.14355469 C-53.04068486 76.08604445 -53.00722488 69.02867213 -52.96145469 61.9712714 C-52.93759743 58.23738962 -52.91881973 54.5036438 -52.91254234 50.76968765 C-52.90532393 46.59251854 -52.87482431 42.41582011 -52.8425293 38.23876953 C-52.84396439 37.01237259 -52.84539948 35.78597565 -52.84687805 34.52241516 C-52.71380582 22.32065379 -50.16395932 14.03621622 -41.88671875 5.05859375 C-30.35972542 -5.99045107 -13.81739088 -7.39017664 0 0 Z " fill="#FED100" transform="translate(1590.41015625,102.2890625)"/>
<path d="M0 0 C9.22307619 5.32480815 14.59625154 13.2447778 17.55078125 23.47265625 C17.80493158 26.57649004 17.80493158 26.57649004 17.81084347 29.9558506 C17.82144185 31.895954 17.82144185 31.895954 17.83225435 33.87525141 C17.83000317 35.30352282 17.82755669 36.73179392 17.82493591 38.1600647 C17.8293897 39.68286953 17.8347042 41.20567204 17.84080464 42.72847116 C17.85497849 46.9103479 17.85664804 51.09215029 17.85620773 55.27404761 C17.85785649 59.78547689 17.8709242 64.29687558 17.88240051 68.80828857 C17.90524575 78.67206036 17.91317072 88.53581062 17.91822696 98.39960527 C17.92148474 104.56040676 17.92800775 110.72120201 17.93522835 116.88199997 C17.95479421 133.94457358 17.97119832 151.00714139 17.97410488 168.06972694 C17.97429245 169.16151364 17.97448002 170.25330033 17.97467327 171.37817147 C17.97503952 173.59142963 17.97540322 175.8046878 17.97576439 178.01794596 C17.9759472 179.11658922 17.97613001 180.21523249 17.97631836 181.34716797 C17.97658918 182.99714807 17.97658918 182.99714807 17.97686548 184.68046109 C17.98040637 202.50024057 18.00742353 220.31989915 18.04481625 238.13963671 C18.08291296 256.44157192 18.10226246 274.74344717 18.10256439 293.04542291 C18.10314868 303.31860762 18.11162214 313.59164813 18.14056206 323.86479568 C18.16509423 332.6134349 18.17234646 341.36187733 18.15731453 350.11054166 C18.15015298 354.57185104 18.15097034 359.03277197 18.17372513 363.49403763 C18.19438607 367.58409153 18.19164904 371.67346012 18.17085028 375.76350717 C18.1673689 377.23729181 18.17220777 378.71112661 18.18655472 380.18484552 C18.30215552 392.88542036 15.75573014 403.19011948 6.80859375 412.5625 C-2.31210208 420.27879803 -12.7038458 421.39040727 -24.19775391 420.73779297 C-32.48828276 419.76148476 -39.3363359 414.54034583 -44.83203125 408.54296875 C-51.45586474 400.06318191 -52.70940885 390.43054003 -53.07421875 379.97265625 C-53.13222656 378.5959375 -53.13222656 378.5959375 -53.19140625 377.19140625 C-53.28471439 374.95201097 -53.3705006 372.71260371 -53.44921875 370.47265625 C-53.89910156 371.0553125 -54.34898437 371.63796875 -54.8125 372.23828125 C-75.67818673 398.83262345 -103.23334865 420.0171388 -137.80419922 424.25 C-143.5726645 424.73558615 -149.35090615 424.76282145 -155.13671875 424.78515625 C-156.3479541 424.79071533 -157.55918945 424.79627441 -158.80712891 424.80200195 C-170.33836469 424.71028512 -181.30214826 423.18247032 -192.32421875 419.78515625 C-193.59930298 419.39650391 -193.59930298 419.39650391 -194.90014648 419 C-202.78946725 416.51074112 -210.10648826 413.25632208 -217.44921875 409.47265625 C-218.42117188 408.99054688 -219.393125 408.5084375 -220.39453125 408.01171875 C-231.66101724 402.20193537 -241.27061881 394.13458003 -250.44921875 385.47265625 C-251.1865625 384.79976562 -251.92390625 384.126875 -252.68359375 383.43359375 C-269.56408537 367.45100062 -280.36503045 346.34004061 -287.44921875 324.47265625 C-287.69542969 323.71500977 -287.94164062 322.95736328 -288.1953125 322.17675781 C-291.00155511 313.40535355 -293.38639655 304.64527391 -294.44921875 295.47265625 C-294.53534424 294.75384277 -294.62146973 294.0350293 -294.71020508 293.29443359 C-295.56570247 285.26966998 -295.63536128 277.25617698 -295.63452148 269.19580078 C-295.63669547 266.87253124 -295.65488243 264.54974782 -295.67382812 262.2265625 C-295.84025178 218.88783291 -281.10398343 177.5936531 -250.44921875 146.47265625 C-224.24936752 120.72648209 -188.55839349 107.95986443 -152.18310547 108.04321289 C-117.44043531 108.64384888 -87.14442853 123.06219376 -63.0703125 147.89501953 C-55.43137577 155.99942072 -55.43137577 155.99942072 -52.44921875 160.47265625 C-52.44775219 159.77065912 -52.44628563 159.06866199 -52.44477463 158.34539223 C-52.40766129 141.23409586 -52.34858678 124.12301493 -52.26531601 107.01188087 C-52.22557124 98.73692135 -52.19315565 90.46205629 -52.17822266 82.18701172 C-52.1651824 74.97126229 -52.13815749 67.75572112 -52.09460568 60.54008901 C-52.07204392 56.72232947 -52.05630487 52.90482629 -52.0573349 49.08699417 C-52.05808467 45.48680286 -52.04000847 41.88717711 -52.00805092 38.28713226 C-51.99559148 36.34963402 -52.00259121 34.41204054 -52.01036072 32.47451782 C-51.8870465 22.06095986 -49.69156494 13.97875929 -42.44140625 6.29296875 C-30.42548971 -4.68628048 -14.7106467 -7.14630875 0 0 Z " fill="#FED100" transform="translate(1093.44921875,588.52734375)"/>
<path d="M0 0 C1.09919518 -0.0049926 1.09919518 -0.0049926 2.22059631 -0.01008606 C3.7695351 -0.01512966 5.31848466 -0.01749518 6.86743164 -0.01733398 C9.18460156 -0.01949575 11.50127505 -0.03760964 13.81835938 -0.05664062 C26.87027037 -0.1074188 39.48531644 1.11032434 52.16015625 4.41796875 C53.00328369 4.63630371 53.84641113 4.85463867 54.71508789 5.07958984 C83.17767766 12.64000705 107.31118373 26.4873385 128.28515625 47.16796875 C129.65220703 48.51568359 129.65220703 48.51568359 131.046875 49.890625 C143.1745124 62.46807491 152.04232449 77.35099957 159.28515625 93.16796875 C159.74277344 94.121875 160.20039062 95.07578125 160.671875 96.05859375 C163.59953707 102.52346268 165.566735 109.2225677 167.47265625 116.04296875 C167.84801514 117.37062256 167.84801514 117.37062256 168.23095703 118.72509766 C171.57355642 131.15305847 172.65250738 143.45215851 172.59765625 156.29296875 C172.59616577 156.96439911 172.59467529 157.63582947 172.59313965 158.3276062 C172.52749478 174.86839791 170.56879297 190.4437211 165.28515625 206.16796875 C164.888125 207.38097656 164.49109375 208.59398437 164.08203125 209.84375 C158.49479562 226.15781487 150.38760387 241.94030013 139.28515625 255.16796875 C138.350052 256.31623655 137.41516779 257.46468358 136.48046875 258.61328125 C110.62008239 289.9781384 71.95480387 311.36202342 31.28515625 315.48046875 C12.57537642 317.07204125 -6.3501408 317.41820524 -24.71484375 313.16796875 C-25.46604492 313.00167969 -26.21724609 312.83539062 -26.99121094 312.6640625 C-68.85233541 303.23352132 -104.95312872 278.59869554 -127.96484375 242.23046875 C-137.5447697 226.67476052 -143.72986295 209.95282322 -148.02734375 192.23046875 C-148.18678467 191.58158691 -148.34622559 190.93270508 -148.51049805 190.26416016 C-152.90003367 171.06448144 -152.38896241 148.42808554 -148.71484375 129.16796875 C-148.56950195 128.39001953 -148.42416016 127.61207031 -148.27441406 126.81054688 C-142.32097447 95.98575185 -127.22414898 69.72052131 -105.71484375 47.16796875 C-104.92464844 46.31332031 -104.13445313 45.45867187 -103.3203125 44.578125 C-92.82873712 33.56458069 -80.17393231 25.1403225 -66.71484375 18.16796875 C-66.06821777 17.83168457 -65.4215918 17.49540039 -64.75537109 17.14892578 C-48.4591832 8.79884539 -31.78349547 3.86565145 -13.71484375 1.16796875 C-12.80895508 0.99523437 -11.90306641 0.8225 -10.96972656 0.64453125 C-7.29824792 0.10697302 -3.70127726 0.00599057 0 0 Z " fill="#FED100" transform="translate(1101.71484375,210.83203125)"/>
<path d="M0 0 C0.70914551 0.2263916 1.41829102 0.4527832 2.14892578 0.68603516 C42.85532527 14.00285554 75.69425392 41.36859739 95.35546875 79.46484375 C99.7669236 88.36622403 103.19550788 97.47329013 106 107 C106.29648437 108.00289062 106.59296875 109.00578125 106.8984375 110.0390625 C117.36593761 148.48898866 111.75345804 193.7452935 92.02685547 228.25 C86.42124555 237.80326008 80.29045219 246.62399825 73 255 C72.20722656 255.92683594 71.41445313 256.85367187 70.59765625 257.80859375 C64.90729862 264.29002795 58.8586332 269.78306092 52 275 C51.01 275.77859375 50.02 276.5571875 49 277.359375 C24.45694792 296.15975258 -8.28076191 309.01548368 -39.42578125 309.203125 C-40.2068222 309.21013931 -40.98786316 309.21715363 -41.79257202 309.22438049 C-44.29927395 309.24179225 -46.80573982 309.24823267 -49.3125 309.25 C-50.16792389 309.25067474 -51.02334778 309.25134949 -51.9046936 309.25204468 C-64.19733161 309.23660873 -75.99666636 308.86498151 -88 306 C-88.74556152 305.83902832 -89.49112305 305.67805664 -90.25927734 305.51220703 C-119.58675137 299.15842962 -144.32401928 284.39649574 -166 264 C-166.639375 263.42507813 -167.27875 262.85015625 -167.9375 262.2578125 C-185.85430545 245.46080739 -197.54418407 223.11037605 -205 200 C-205.39832031 198.78957031 -205.79664063 197.57914063 -206.20703125 196.33203125 C-207.25940346 192.90689472 -208.16557497 189.48449713 -209 186 C-209.2990625 184.75476563 -209.598125 183.50953125 -209.90625 182.2265625 C-214.25828571 161.84689472 -213.80812014 138.26465853 -209 118 C-208.80664062 117.17419434 -208.61328125 116.34838867 -208.4140625 115.49755859 C-198.68245614 75.3471734 -174.1713232 39.68623331 -138.92431641 17.70556641 C-123.03473164 8.03787207 -106.07637451 1.26929448 -88 -3 C-86.6664325 -3.37416642 -85.33305457 -3.74901025 -84 -4.125 C-56.85506059 -10.48532053 -26.47543654 -8.48614017 0 0 Z " fill="#FED100" transform="translate(666,704)"/>
<path d="M0 0 C0.77524017 -0.00100708 1.55048035 -0.00201416 2.34921265 -0.00305176 C46.21638966 0.03544958 86.16557555 17.395977 117.59228516 47.82666016 C121.40872159 51.68545731 124.72004286 55.93621022 128 60.25 C128.67675781 61.12269531 129.35351562 61.99539063 130.05078125 62.89453125 C142.24243207 79.06326427 151.16346759 97.59716343 156 117.25 C156.27457031 118.21035156 156.54914063 119.17070312 156.83203125 120.16015625 C167.119292 158.62336271 159.97121939 201.45836698 141 235.9375 C134.33268057 246.87083065 126.88795312 257.01463503 118 266.25 C117.55430664 266.72147461 117.10861328 267.19294922 116.64941406 267.67871094 C89.8185944 295.98273964 50.6493758 314.81366774 11.43701172 316.39355469 C-19.21665108 317.16688301 -47.04289993 313.54097551 -75 300.25 C-75.66435059 299.93836914 -76.32870117 299.62673828 -77.01318359 299.30566406 C-91.61505187 292.3453788 -104.33900544 282.39095021 -116 271.25 C-117.17369141 270.18845703 -117.17369141 270.18845703 -118.37109375 269.10546875 C-137.17723101 251.44274464 -150.20496058 226.94416765 -157 202.25 C-157.20061035 201.5369873 -157.4012207 200.82397461 -157.60791016 200.08935547 C-161.29820442 186.81091277 -162.20724547 174.26779779 -162.24023438 160.56640625 C-162.24989726 158.15068546 -162.28098893 155.73583328 -162.3125 153.3203125 C-162.38278768 142.92862035 -161.32372739 133.39002832 -159 123.25 C-158.7100415 121.98019287 -158.42008301 120.71038574 -158.12133789 119.40209961 C-152.96895756 97.73037614 -143.04304355 77.50609192 -129 60.25 C-128.54222168 59.68539062 -128.08444336 59.12078125 -127.61279297 58.5390625 C-101.72194723 26.82256007 -63.90254484 4.95029886 -22.81640625 0.60546875 C-15.22388293 0.03407617 -7.61019419 0.00687763 0 0 Z " fill="#FED100" transform="translate(1806,210.75)"/>
<path d="M0 0 C1.69772167 1.57236822 3.38441486 3.15669182 5.0625 4.75 C5.82264404 5.4613208 5.82264404 5.4613208 6.59814453 6.18701172 C32.55008443 30.59447187 46.11719912 62.09189259 52.0625 96.75 C52.26101563 97.85085938 52.45953125 98.95171875 52.6640625 100.0859375 C54.95192432 121.1252942 53.74088611 143.62176311 47.0625 163.75 C46.70285156 164.93722656 46.34320312 166.12445312 45.97265625 167.34765625 C39.08423118 189.40453247 27.81328103 208.87137321 12.0625 225.75 C11.27504395 226.59522217 11.27504395 226.59522217 10.47167969 227.45751953 C-16.66763018 256.25690283 -55.88274926 275.54172149 -95.71118164 276.87646484 C-100.09900589 276.96998765 -104.48626756 276.99658 -108.875 277 C-110.04409912 277.00101212 -110.04409912 277.00101212 -111.23681641 277.00204468 C-123.06546839 276.98579152 -134.37864479 276.44563853 -145.9375 273.75 C-146.68741211 273.58902832 -147.43732422 273.42805664 -148.20996094 273.26220703 C-186.54276067 264.95224357 -222.08634595 241.56103507 -243.73632812 208.63574219 C-250.59799161 197.86348837 -256.22713142 186.61505285 -260.9375 174.75 C-261.63166016 173.01943359 -261.63166016 173.01943359 -262.33984375 171.25390625 C-275.37555247 135.71277943 -273.39619626 91.5354478 -257.94921875 57.01171875 C-252.06873261 44.39040386 -245.8700834 32.49814913 -236.9375 21.75 C-236.48648926 21.19505859 -236.03547852 20.64011719 -235.57080078 20.06835938 C-209.10067736 -12.45233408 -170.9294019 -33.62107007 -129.125 -38.5625 C-82.63493847 -43.26421124 -35.41324681 -31.1933108 0 0 Z " fill="#FED100" transform="translate(1416.9375,736.25)"/>
<path d="M0 0 C1.21533165 -0.0049926 1.21533165 -0.0049926 2.45521545 -0.01008606 C4.16195109 -0.0151147 5.86869642 -0.01749565 7.57543945 -0.01733398 C10.12273415 -0.01949944 12.66957967 -0.03764075 15.21679688 -0.05664062 C51.98899242 -0.18424608 87.51506377 8.71312624 114.41015625 35.04296875 C139.30856621 60.16036896 145.32528359 94.0800703 145.41552734 128.10717773 C145.4234453 129.7937435 145.43171524 131.48030765 145.44030762 133.16687012 C145.46631123 138.66591827 145.48180387 144.16497326 145.49609375 149.6640625 C145.50146056 151.56665614 145.50683808 153.46924976 145.5122261 155.37184334 C145.53381449 163.28751056 145.55255051 171.2031759 145.5638485 179.11886501 C145.58009409 190.42076012 145.61333329 201.72231203 145.67024934 213.02407783 C145.70902244 220.99724491 145.72848933 228.97032041 145.73376906 236.94357926 C145.73740961 241.69472019 145.7492945 246.44549322 145.7818718 251.1965313 C145.81208633 255.66600809 145.81821696 260.13489672 145.80648804 264.60445404 C145.80626848 266.23619094 145.81447459 267.86795629 145.83214188 269.49959755 C145.95292046 281.30434917 144.71944185 291.58334134 136.41015625 300.66796875 C128.84191435 307.51204492 119.73671672 310.6615418 109.5703125 310.34765625 C99.45841929 309.57370103 90.88850347 306.46241424 83.84765625 298.85546875 C77.45708505 290.52781223 76.51710187 282.51773245 76.22265625 272.16796875 C75.18431641 273.27591797 75.18431641 273.27591797 74.125 274.40625 C52.33783344 297.18873092 22.91575478 312.19235148 -9.015625 313.27807617 C-12.83258018 313.33861006 -16.64742338 313.3535836 -20.46484375 313.35546875 C-21.75068359 313.36771484 -23.03652344 313.37996094 -24.36132812 313.39257812 C-32.69217037 313.40520699 -40.5937746 312.71952665 -48.77734375 311.16796875 C-49.51090088 311.03253662 -50.24445801 310.89710449 -51.00024414 310.75756836 C-76.02376927 305.80649201 -98.8587503 292.20667587 -113.74609375 271.33203125 C-128.03804574 249.06956758 -131.68612008 220.66042847 -126.75170898 194.71459961 C-123.49418027 181.08931093 -117.11298893 168.56124693 -107.77734375 158.16796875 C-106.99359375 157.13671875 -106.20984375 156.10546875 -105.40234375 155.04296875 C-83.38250907 130.92600696 -48.97287679 123.24263664 -17.77734375 121.16796875 C15.15134269 119.81792943 46.74184088 123.42158628 78.22265625 133.16796875 C77.48241217 112.08377537 74.52404801 92.69500119 58.59765625 77.41796875 C42.96764586 64.78093907 22.72043839 61.29646539 3.20605469 61.62597656 C0.59103179 61.6680754 -2.02141058 61.66699238 -4.63671875 61.66015625 C-19.02995406 61.71360902 -32.64591781 63.76145395 -46.52734375 67.60546875 C-47.31971436 67.81647217 -48.11208496 68.02747559 -48.9284668 68.24487305 C-53.54852479 69.49159998 -58.06159575 70.9288698 -62.58984375 72.48046875 C-71.11384745 75.12659713 -79.93444096 75.89438033 -88.21484375 72.10546875 C-92.78929473 69.43140545 -96.47620182 66.30971976 -99.77734375 62.16796875 C-100.21175781 61.63042969 -100.64617187 61.09289062 -101.09375 60.5390625 C-105.36894187 53.88048841 -104.69125007 44.74986107 -103.77734375 37.16796875 C-102.93777928 33.98894374 -101.7578304 31.76892432 -99.77734375 29.16796875 C-99.41125 28.58144531 -99.04515625 27.99492187 -98.66796875 27.390625 C-87.71957616 11.94798484 -58.02869326 7.6906629 -40.77734375 4.16796875 C-33.14740321 2.87231847 -25.47044693 1.98893949 -17.77734375 1.16796875 C-17.11394485 1.08537308 -16.45054596 1.0027774 -15.76704407 0.91767883 C-10.49180668 0.27947369 -5.31151114 0.00787936 0 0 Z " fill="#FEFDFE" transform="translate(2110.77734375,212.83203125)"/>
<path d="M0 0 C4.09904995 3.76381166 6.67730407 7.88155972 8.9375 12.9375 C9.48470703 14.11892578 9.48470703 14.11892578 10.04296875 15.32421875 C12.70027567 23.08726823 11.40785295 31.91827113 8.33203125 39.36328125 C3.89865355 47.54702327 -2.25687156 52.70143863 -10.8515625 56.01171875 C-18.99639325 58.36004586 -27.95477858 57.8913831 -35.65234375 54.32421875 C-39.34163312 52.201532 -42.70075128 49.71224833 -46.09375 47.1484375 C-66.96813418 31.60251455 -90.80630825 21.44721447 -117.35302734 25.26708984 C-141.51532836 29.3955496 -161.37153179 41.4668165 -175.8671875 61.421875 C-184.37690109 74.20535585 -189.11049403 86.98701816 -192.0625 101.9375 C-192.2375708 102.72552002 -192.4126416 103.51354004 -192.59301758 104.32543945 C-197.04880938 129.11613966 -191.04928742 157.74805512 -177.31640625 178.77734375 C-164.5743406 196.64273562 -147.72535417 209.7938185 -126.0625 214.9375 C-125.33369629 215.11450439 -124.60489258 215.29150879 -123.85400391 215.47387695 C-117.13976535 216.96585129 -110.67731943 217.28622457 -103.8125 217.25 C-102.7100293 217.24508545 -101.60755859 217.2401709 -100.47167969 217.23510742 C-79.00664246 216.9268834 -58.47258933 208.88064428 -41.875 195.3125 C-33.38714515 188.40493801 -25.34802905 182.82875715 -13.94921875 183.484375 C-6.15311877 184.70812006 0.73241771 187.9091649 5.9375 193.9375 C7.85898436 196.82994721 9.47572782 199.78948876 10.9375 202.9375 C11.30488281 203.72511719 11.67226563 204.51273438 12.05078125 205.32421875 C14.22657769 211.736588 13.91455318 219.48286232 11.375 225.75 C-2.03682269 251.40536814 -36.4628387 266.8274942 -62.5390625 275.03125 C-76.43037692 278.7755396 -90.52223567 279.31305492 -104.8125 279.25 C-105.64911163 279.24850952 -106.48572327 279.24701904 -107.34768677 279.2454834 C-119.49927127 279.20655417 -131.19236501 278.74692744 -143.0625 275.9375 C-144.3 275.67066406 -145.5375 275.40382813 -146.8125 275.12890625 C-173.96491121 268.65719807 -196.92184117 254.95740204 -217.0625 235.9375 C-217.86042969 235.20402344 -218.65835938 234.47054688 -219.48046875 233.71484375 C-241.53321914 212.71389386 -254.84729062 184.45223828 -261.0625 154.9375 C-261.36027344 153.70128906 -261.65804687 152.46507812 -261.96484375 151.19140625 C-270.84444228 111.63140114 -260.36824195 67.98278542 -239.24609375 34.10058594 C-234.7606267 27.19233492 -229.5791676 21.03442684 -224.0625 14.9375 C-223.340625 14.09574219 -222.61875 13.25398437 -221.875 12.38671875 C-202.68334172 -9.91608726 -175.29820858 -24.81007942 -147.0625 -32.0625 C-146.02996094 -32.35769531 -144.99742187 -32.65289063 -143.93359375 -32.95703125 C-94.57767493 -46.58866597 -38.86965909 -32.27398383 0 0 Z " fill="#FED000" transform="translate(425.0625,734.0625)"/>
<path d="M0 0 C1.11375 0.38027344 2.2275 0.76054687 3.375 1.15234375 C23.03810064 8.30913406 48.53256083 20.83327017 59 40 C62.21568954 49.41259126 62.73504393 59.35092412 58.5 68.5 C55.46715427 73.78439631 52.0673984 77.62486823 47 81 C46.35675781 81.43183594 45.71351563 81.86367188 45.05078125 82.30859375 C37.14106491 86.66270427 25.75591821 86.36210448 17.1875 84 C12.66931775 82.17060418 8.93816296 79.24265689 5.07421875 76.31640625 C-18.1931113 58.7846061 -42.14424069 50.83127862 -71.37890625 54.47265625 C-85.74053693 56.97358672 -97.5586464 63.27616089 -109 72 C-110.10794922 72.82951172 -110.10794922 72.82951172 -111.23828125 73.67578125 C-129.39086906 88.33608764 -139.97676395 113.06689991 -142.77294922 135.69775391 C-145.65770789 164.94858647 -138.79488333 192.63359181 -120.5625 215.8125 C-105.89839717 233.04969072 -85.52064832 243.73922014 -63 246 C-32.00803104 248.4812403 -7.48165204 236.50977344 16.31640625 217.91015625 C22.04340806 213.83373138 26.40975121 212.43939574 33.3125 212.5 C34.0657959 212.50572021 34.8190918 212.51144043 35.59521484 212.51733398 C41.78042427 212.71575775 46.17492198 213.97740864 51 218 C51.96486328 218.79664063 51.96486328 218.79664063 52.94921875 219.609375 C58.52644167 224.70721398 62.63829149 231.38673404 63.23828125 239.0390625 C63.46288091 249.89077216 61.675033 256.86923221 54.22265625 264.84375 C20.76217136 297.30453675 -20.6711228 308.66855281 -66.41796875 308.21875 C-74.54737865 308.03343791 -82.10098732 306.83199993 -90 305 C-91.37948654 304.72679854 -92.75971845 304.45733713 -94.140625 304.19140625 C-120.92285486 298.79221279 -145.34113272 284.66422221 -165 266 C-165.50144531 265.53110352 -166.00289062 265.06220703 -166.51953125 264.57910156 C-183.68882168 248.44372826 -196.17082097 229.24149972 -204 207 C-204.25910156 206.27441895 -204.51820313 205.54883789 -204.78515625 204.80126953 C-211.21263612 186.53961929 -213.26147735 169.52750148 -213.3125 150.25 C-213.31814972 149.06654999 -213.31814972 149.06654999 -213.32391357 147.85919189 C-213.3576199 133.91093642 -212.41743152 120.33440479 -208.4375 106.875 C-208.18137939 105.99956543 -207.92525879 105.12413086 -207.66137695 104.22216797 C-195.41355878 63.97984949 -168.88326387 30.31446787 -131.91821289 9.97558594 C-122.90336857 5.1737365 -113.81754627 0.87891843 -104 -2 C-103.06736328 -2.27360352 -102.13472656 -2.54720703 -101.17382812 -2.82910156 C-68.76137536 -11.89845349 -31.84424781 -11.03008479 0 0 Z " fill="#FED100" transform="translate(880,219)"/>
<path d="M0 0 C8.64595481 -0.43626377 15.74562619 2.36609726 22.37890625 7.94921875 C23.95878737 9.6524659 25.20060992 11.33881379 26.4296875 13.30859375 C26.83960938 13.953125 27.24953125 14.59765625 27.671875 15.26171875 C31.63289394 22.63740919 31.6762114 31.15442751 29.734375 39.18359375 C24.42054132 53.83012693 11.3901906 59.02758197 -1.82470703 65.21899414 C-3.36484561 65.93649644 -4.90504898 66.65385969 -6.4453125 67.37109375 C-8.05993153 68.12775048 -9.67434942 68.88483658 -11.28857422 69.64233398 C-16.04550197 71.87228299 -20.807048 74.09221761 -25.5703125 76.30859375 C-26.22845947 76.61490723 -26.88660645 76.9212207 -27.56469727 77.23681641 C-32.72577459 79.63816506 -37.88898782 82.03488094 -43.0546875 84.42626953 C-52.20222114 88.66303575 -61.32632578 92.94830389 -70.4453125 97.24609375 C-81.75166836 102.57472066 -93.06744836 107.88217614 -104.39770508 113.15979004 C-113.86263104 117.56914047 -123.31231055 122.01009702 -132.75640869 126.46386719 C-146.98518452 133.17376476 -161.2476132 139.8009511 -175.5703125 146.30859375 C-172.67764302 148.62474631 -169.83076694 150.2454931 -166.4609375 151.77734375 C-164.89545166 152.49531128 -164.89545166 152.49531128 -163.29833984 153.2277832 C-161.57671631 154.01028442 -161.57671631 154.01028442 -159.8203125 154.80859375 C-157.27450327 155.97583262 -154.73084287 157.14771068 -152.1875 158.3203125 C-151.50648224 158.63397263 -150.82546448 158.94763275 -150.12380981 159.27079773 C-141.36299549 163.31423598 -132.65640178 167.47193947 -123.9453125 171.62109375 C-120.50283586 173.25960178 -117.06008992 174.89754307 -113.6171875 176.53515625 C-112.76913544 176.93854721 -111.92108337 177.34193817 -111.04733276 177.7575531 C-102.77313373 181.69127259 -94.4865584 185.59845502 -86.1953125 189.49609375 C-85.16020538 189.98270981 -85.16020538 189.98270981 -84.10418701 190.47915649 C-80.64421322 192.10553136 -77.18398276 193.73135924 -73.72363281 195.35693359 C-67.37983714 198.33739963 -61.03837336 201.32282166 -54.69668579 204.30776978 C-51.1767873 205.96448679 -47.65674616 207.62090066 -44.13671875 209.27734375 C-42.72281832 209.94270686 -41.30891858 210.60807145 -39.89501953 211.2734375 C-39.18726379 211.60649902 -38.47950806 211.93956055 -37.75030518 212.28271484 C-37.03090759 212.62125488 -36.31151001 212.95979492 -35.5703125 213.30859375 C-34.45834503 213.83187256 -34.45834503 213.83187256 -33.32391357 214.36572266 C-32.57232971 214.71940918 -31.82074585 215.0730957 -31.04638672 215.4375 C-29.91515884 215.96984253 -29.91515884 215.96984253 -28.76107788 216.51293945 C-25.73630778 217.93636068 -22.71153768 219.3597819 -19.68676758 220.78320312 C-18.60818481 221.29077148 -18.60818481 221.29077148 -17.5078125 221.80859375 C-16.82436768 222.13021484 -16.14092285 222.45183594 -15.43676758 222.78320312 C-14.10305312 223.41083346 -12.76929813 224.03837768 -11.4355011 224.66583252 C-10.13568264 225.27772339 -8.83618846 225.89030363 -7.53703308 226.50360107 C-4.02546951 228.16014092 -0.50727027 229.8005657 3.02026367 231.42285156 C3.78499496 231.77682007 4.54972626 232.13078857 5.33763123 232.4954834 C6.8031442 233.17355318 8.27061211 233.84742024 9.7403717 234.51623535 C19.05481268 238.84068941 25.11142858 244.57827046 29.39453125 254.02734375 C32.07142275 262.51258474 31.41688979 271.18344666 27.60546875 279.19921875 C23.27007464 286.97700221 17.60589712 289.97069966 9.4296875 293.30859375 C-6.73737024 297.33206966 -19.71906352 288.30727206 -33.67578125 281.2578125 C-39.3110739 278.42205373 -44.99449566 275.6971347 -50.6953125 272.99609375 C-59.3764742 268.87639717 -67.98564611 264.62544372 -76.5703125 260.30859375 C-85.03028598 256.05450534 -93.51337904 251.86441172 -102.0703125 247.80859375 C-111.23456171 243.46492007 -120.31135849 238.95873191 -129.37158203 234.40283203 C-137.23206273 230.45229416 -145.12074402 226.57653268 -153.0703125 222.80859375 C-162.23086504 218.46667222 -171.30499852 213.96410153 -180.36050415 209.40786743 C-188.44884552 205.33995839 -196.57495623 201.37004648 -204.7578125 197.49609375 C-242.57201639 179.48855397 -242.57201639 179.48855397 -249.4453125 160.74609375 C-252.34863119 149.72391382 -251.76750827 137.48866794 -246.5703125 127.30859375 C-244.6328125 123.99609375 -244.6328125 123.99609375 -242.5703125 121.30859375 C-241.5184375 119.85453125 -241.5184375 119.85453125 -240.4453125 118.37109375 C-234.4355599 111.34165642 -225.57519192 107.01633766 -217.3828125 103.05859375 C-216.43212891 102.59098633 -215.48144531 102.12337891 -214.50195312 101.64160156 C-206.94507788 97.93759147 -199.34416001 94.32459542 -191.74145508 90.71582031 C-183.63098937 86.85207986 -175.59665354 82.84299597 -167.5703125 78.80859375 C-157.82712355 73.91128438 -148.04657001 69.11037745 -138.19140625 64.44140625 C-130.59959535 60.83183557 -123.08029722 57.0849314 -115.5703125 53.30859375 C-107.15189197 49.07545619 -98.71092046 44.90543852 -90.1953125 40.87109375 C-81.25899479 36.63677065 -72.4054153 32.24885482 -63.5703125 27.80859375 C-51.8198715 21.90527013 -40.01446506 16.13638801 -28.12304688 10.52099609 C-25.6038486 9.32452147 -23.09400277 8.11023908 -20.5859375 6.890625 C-19.05991342 6.15491143 -17.53387279 5.41923221 -16.0078125 4.68359375 C-15.33516357 4.35238525 -14.66251465 4.02117676 -13.96948242 3.67993164 C-9.28495 1.43892826 -5.09973621 0.61227836 0 0 Z " fill="#FEFDFE" transform="translate(595.5703125,170.69140625)"/>
<path d="M0 0 C1.44445174 0.70281462 2.88895143 1.4055307 4.33349609 2.1081543 C15.06540411 7.33718442 25.74670171 12.66531897 36.41412354 18.02441406 C44.52885716 22.10046604 52.66478754 26.11871242 60.875 30 C71.24692303 34.9036285 81.49752168 40.04042499 91.75 45.1875 C101.87763677 50.27186473 112.00133676 55.35000691 122.25 60.1875 C134.17972361 65.81847393 145.94971048 71.76646433 157.73364258 77.69458008 C165.79187945 81.74320471 173.86578701 85.72416484 182.04296875 89.52783203 C196.02671452 96.03612397 208.43824577 102.70474601 215.1875 117.375 C218.59340383 127.85926048 218.67483073 142.09771877 214.8125 152.4375 C206.11519954 169.25228089 188.44474025 176.01010805 172.3125 184 C170.79517252 184.75522067 169.27792098 185.51059395 167.76074219 186.26611328 C158.83961279 190.70076213 149.88061723 195.0468444 140.87329102 199.30395508 C131.42878758 203.79136644 122.09435992 208.49634076 112.75 213.1875 C101.72361136 218.72307698 90.68464231 224.20830423 79.52734375 229.4765625 C69.73278744 234.12506746 60.06036878 239.01655322 50.37219238 243.88153076 C40.37599455 248.8992493 30.35468884 253.84340598 20.23999023 258.61914062 C14.78065319 261.20747758 9.36224627 263.86755165 3.96484375 266.58203125 C3.29005981 266.92119064 2.61527588 267.26035004 1.92004395 267.60978699 C-1.40734266 269.28382072 -4.7316647 270.96363276 -8.05224609 272.65112305 C-20.30561101 278.85728385 -30.36526793 282.66778146 -44.25 280.6875 C-51.55960066 278.23600002 -56.43997401 273.2638815 -60.25 266.6875 C-60.75853516 265.81544922 -60.75853516 265.81544922 -61.27734375 264.92578125 C-64.67843805 257.70041503 -64.54182628 248.33682646 -62.44140625 240.77734375 C-57.33788028 229.35180291 -46.79211273 223.97789443 -35.9375 219 C-34.64561902 218.39349267 -33.35437172 217.78563399 -32.0637207 217.17651367 C-28.762798 215.62335852 -25.45373729 214.08856174 -22.14111328 212.56054688 C-19.26819212 211.2342409 -16.39998631 209.89782845 -13.53125 208.5625 C-10.20058319 207.0142168 -6.86888892 205.46831063 -3.53442383 203.92822266 C6.80337705 199.1497032 17.09163257 194.2693955 27.375 189.375 C43.39502865 181.75151296 59.43459817 174.17123904 75.49282837 166.62858582 C80.49990303 164.27632364 85.504325 161.91847525 90.5078125 159.55859375 C93.4217665 158.18466558 96.33584553 156.8110029 99.25 155.4375 C99.95371735 155.10576782 100.65743469 154.77403564 101.38247681 154.43225098 C108.78524848 150.94398124 116.19457011 147.47134322 123.62890625 144.05078125 C124.24530975 143.767117 124.86171326 143.48345276 125.49679565 143.19119263 C128.37885512 141.8659528 131.26261852 140.54457413 134.1484375 139.22753906 C135.14230469 138.77217773 136.13617187 138.31681641 137.16015625 137.84765625 C138.46158569 137.25416382 138.46158569 137.25416382 139.78930664 136.64868164 C141.70429762 135.84109083 141.70429762 135.84109083 142.75 134.6875 C129.40069079 128.20991273 116.03424331 121.78221672 102.5625 115.5625 C91.04623824 110.24363905 79.57906224 104.82637539 68.125 99.375 C52.1049393 91.75157988 36.06540219 84.1712392 20.00717163 76.62858582 C15.00009686 74.27632359 9.9957048 71.91841221 4.9921875 69.55859375 C3.52841302 68.86862832 2.06462725 68.17868684 0.60083008 67.48876953 C-2.26982054 66.1357465 -5.13963947 64.7809791 -8.0090332 63.42529297 C-14.59829837 60.31637777 -21.19930861 57.24242921 -27.84765625 54.26171875 C-29.0284375 53.72901367 -30.20921875 53.19630859 -31.42578125 52.64746094 C-33.594222 51.67266304 -35.76705077 50.70753282 -37.9453125 49.75488281 C-45.92231453 46.16204535 -53.9460148 41.76484114 -58.6875 34.125 C-59.13996094 33.42246094 -59.59242187 32.71992187 -60.05859375 31.99609375 C-64.21632565 23.9396362 -64.8547345 14.50661007 -62.4453125 5.76953125 C-59.00448962 -1.88333344 -52.86384689 -8.20454581 -45 -11.3125 C-28.21871679 -15.74859574 -14.62601831 -7.14748527 0 0 Z " fill="#FEFDFE" transform="translate(1838.25,670.3125)"/>
<path d="M0 0 C8.59379776 4.62254187 12.67074218 10.07466175 16 19.3125 C18.60156127 32.39410953 10.1242885 45.47487821 4.375 56.6875 C3.12151026 59.15709398 1.8730205 61.62920095 0.625 64.1015625 C0.16001602 65.02098633 0.16001602 65.02098633 -0.31436157 65.95898438 C-3.17075985 71.61988931 -5.91195943 77.33186332 -8.625 83.0625 C-12.80533245 91.87878279 -17.13182215 100.61305185 -21.51782227 109.32861328 C-25.42268186 117.10801818 -29.19229409 124.9458056 -32.92578125 132.80859375 C-36.4788285 140.27203496 -40.15981453 147.66531141 -43.87744141 155.04785156 C-47.14578967 161.55672249 -50.31348252 168.10826548 -53.4375 174.6875 C-57.19999463 182.61023868 -61.0573189 190.47788832 -65 198.3125 C-68.92174364 206.10557117 -72.75878955 213.9311604 -76.5 221.8125 C-80.72462346 230.71221109 -85.09114169 239.5321723 -89.51953125 248.33203125 C-92.92751297 255.12157622 -96.24228392 261.9497033 -99.5 268.8125 C-103.72462346 277.71221109 -108.09114169 286.5321723 -112.51953125 295.33203125 C-115.92751297 302.12157622 -119.24228392 308.9497033 -122.5 315.8125 C-126.72392071 324.71073066 -131.08964774 333.52925778 -135.51733398 342.32763672 C-139.4223531 350.10736922 -143.19213777 357.9454764 -146.92578125 365.80859375 C-150.4788285 373.27203496 -154.15981453 380.66531141 -157.87744141 388.04785156 C-161.14578967 394.55672249 -164.31348252 401.10826548 -167.4375 407.6875 C-171.19999463 415.61023868 -175.0573189 423.47788832 -179 431.3125 C-182.92174364 439.10557117 -186.75878955 446.9311604 -190.5 454.8125 C-194.72011708 463.70271783 -199.07987622 472.51437416 -203.50634766 481.3034668 C-207.5112521 489.27745947 -211.38121261 497.31067898 -215.171875 505.38867188 C-226.27131464 528.88018775 -226.27131464 528.88018775 -238.375 534.39453125 C-245.53505184 536.89841842 -252.52873958 535.94871085 -259.3125 532.8125 C-266.52235162 528.79234713 -272.07312642 523.46446869 -274.55859375 515.4296875 C-277.47420001 501.44509817 -269.02481493 489.05154822 -263.0625 476.875 C-262.36854187 475.45130502 -261.6748663 474.0274723 -260.98144531 472.60351562 C-259.07024792 468.68149408 -257.1544197 464.76175199 -255.23736572 460.84259033 C-253.96660165 458.24420907 -252.69678891 455.64536487 -251.42724609 453.04638672 C-246.81650625 443.6075663 -242.20243835 434.17037895 -237.5859375 424.734375 C-232.34140385 414.01409812 -227.10621085 403.28928334 -221.875 392.5625 C-221.2611142 391.30379089 -221.2611142 391.30379089 -220.63482666 390.01965332 C-217.75626096 384.11741035 -214.87807466 378.21498242 -212 372.3125 C-208.70860716 365.56236644 -205.4170171 358.81232914 -202.125 352.0625 C-201.51131058 350.80418365 -201.51131058 350.80418365 -200.88522339 349.52044678 C-193.77901333 334.95068343 -186.65968535 320.38735437 -179.53765869 305.82531738 C-172.79342562 292.03502464 -166.06263758 278.23826 -159.34298706 264.43597412 C-152.44223683 250.26254976 -145.52070048 236.09935066 -138.59423828 221.93847656 C-132.2180563 208.90203628 -125.85240657 195.86054152 -119.5 182.8125 C-112.21394524 167.84671593 -104.90782993 152.89082128 -97.59423828 137.93847656 C-90.83400072 124.11681439 -84.08622461 110.28916355 -77.35232544 96.45465088 C-72.67089749 86.83713843 -67.98057877 77.22405702 -63.27734375 67.6171875 C-62.79081329 66.62313904 -62.30428284 65.62909058 -61.80300903 64.60491943 C-59.44819453 59.7938694 -57.09231285 54.98334814 -54.734375 50.17382812 C-53.86321559 48.3945634 -52.99212096 46.61526695 -52.12109375 44.8359375 C-51.69706268 43.97180237 -51.27303162 43.10766724 -50.83615112 42.21734619 C-48.6242379 37.69528057 -46.45330611 33.15821919 -44.33642578 28.59082031 C-43.67876976 27.18021835 -43.67876976 27.18021835 -43.00782776 25.74111938 C-42.18103733 23.96259475 -41.36167673 22.18058726 -40.55162048 20.39437866 C-37.18810319 13.17362005 -33.25498272 6.15195707 -26.3125 1.875 C-25.56613281 1.40191406 -24.81976562 0.92882812 -24.05078125 0.44140625 C-17.16251929 -3.35041795 -7.14162328 -3.02239347 0 0 Z " fill="#FEFDFE" transform="translate(1737,547.6875)"/>
<path d="M0 0 C2.52910387 1.95699769 4.93247692 3.99385274 7.31640625 6.125 C8.54810547 7.21554687 8.54810547 7.21554687 9.8046875 8.328125 C25.8816325 23.42995203 34.17911051 42.81570256 38.31640625 64.125 C38.50976562 65.08535156 38.703125 66.04570313 38.90234375 67.03515625 C42.30041288 92.39244574 35.99505188 119.7729268 21.45703125 140.81640625 C19.80327878 142.97872419 18.0841331 145.05556977 16.31640625 147.125 C15.88328125 147.70121094 15.45015625 148.27742187 15.00390625 148.87109375 C2.62077448 164.82911772 -18.31154564 173.74713024 -37.68359375 177.125 C-52.89176437 178.02957984 -68.24036129 178.41755436 -82.68359375 173.125 C-83.8746875 172.70089844 -85.06578125 172.27679687 -86.29296875 171.83984375 C-110.51536241 162.34656938 -127.18229221 143.42105279 -137.68359375 120.125 C-146.37274812 99.51222671 -148.07088287 73.63716856 -141.68359375 52.125 C-141.28333984 50.55878906 -141.28333984 50.55878906 -140.875 48.9609375 C-137.05634584 35.01012096 -130.52084922 22.73671277 -120.68359375 12.125 C-119.92433594 11.27421875 -119.16507813 10.4234375 -118.3828125 9.546875 C-87.7675412 -23.12277621 -35.86761413 -25.06034175 0 0 Z " fill="#650093" transform="translate(668.68359375,774.875)"/>
<path d="M0 0 C1.71509766 0.52787109 1.71509766 0.52787109 3.46484375 1.06640625 C15.84542197 5.1394955 26.22820619 11.42343387 36 20 C36.74894531 20.65355469 37.49789063 21.30710937 38.26953125 21.98046875 C52.32415188 35.0997556 61.27313234 53.29352876 65 72 C65.16773926 72.72582275 65.33547852 73.45164551 65.50830078 74.19946289 C66.88733873 80.42471183 67.31672004 86.32082504 67.25 92.6875 C67.24178223 93.65010742 67.23356445 94.61271484 67.22509766 95.60449219 C66.84511242 120.06246669 59.66454049 143.60728494 43 162 C42.26265625 162.83015625 41.5253125 163.6603125 40.765625 164.515625 C31.27071316 174.63111932 19.98890364 181.29198765 7 186 C6.24460937 186.29519531 5.48921875 186.59039062 4.7109375 186.89453125 C-17.26168658 195.00442705 -42.32590491 192.30932239 -63.32006836 182.8449707 C-86.6392993 171.75401055 -102.94968977 152.24425974 -111.58642578 128.19677734 C-121.14581398 100.05133406 -118.53326668 70.385863 -105.6875 43.75 C-102.45983445 37.49070932 -98.62491989 32.28165851 -94 27 C-93.45859375 26.31550781 -92.9171875 25.63101562 -92.359375 24.92578125 C-71.6930542 -0.60615391 -30.56637082 -10.13452241 0 0 Z " fill="#650093" transform="translate(1830,275)"/>
<path d="M0 0 C1.05832031 0.37382812 2.11664062 0.74765625 3.20703125 1.1328125 C16.14274583 6.14768516 26.2835689 13.29706394 36 23 C37.2065625 24.18916016 37.2065625 24.18916016 38.4375 25.40234375 C48.92625769 36.34634266 55.59008577 49.61265482 60 64 C60.3403125 65.09699219 60.680625 66.19398438 61.03125 67.32421875 C67.00794114 91.1479737 64.11902175 119.08146861 53 141 C52.26523438 142.45019531 52.26523438 142.45019531 51.515625 143.9296875 C40.42313392 164.26592114 22.28864656 179.31094375 0.1875 186.375 C-8.74588991 188.95495336 -17.32512558 190.37057755 -26.625 190.3125 C-27.582854 190.30686035 -28.54070801 190.3012207 -29.52758789 190.29541016 C-53.75753873 189.88641458 -74.56028883 180.91217542 -92 164 C-92.60070313 163.47277344 -93.20140625 162.94554687 -93.8203125 162.40234375 C-109.40842582 148.22803606 -118.98330599 124.43308492 -120.19287109 103.69287109 C-120.74402274 80.30065922 -119.33073577 59.528888 -107 39 C-106.65453125 38.42314453 -106.3090625 37.84628906 -105.953125 37.25195312 C-94.57990123 18.7280271 -77.86803411 5.35338662 -57 -1 C-56.0203125 -1.31710937 -55.040625 -1.63421875 -54.03125 -1.9609375 C-36.96382568 -6.56576238 -16.63483546 -5.91203211 0 0 Z " fill="#650093" transform="translate(1141,276)"/>
<path d="M0 0 C18.43971249 15.70692057 31.83949047 38.37530173 34.375 62.75 C35.27356575 77.44917938 35.59973176 92.52560073 31.375 106.75 C31.0346875 107.98105469 30.694375 109.21210937 30.34375 110.48046875 C26.42951807 123.84642957 19.61754357 135.35876555 10.375 145.75 C9.71113281 146.50796875 9.04726562 147.2659375 8.36328125 148.046875 C-5.01345793 162.38792625 -26.0171329 172.76410762 -45.60668945 173.92700195 C-75.9719421 174.52119221 -98.48568353 169.24531872 -121.25 148.1171875 C-140.93427429 128.49766411 -148.82290322 103.07677467 -149.0625 75.875 C-148.94034283 48.64064487 -140.38896165 24.31867048 -121.41796875 4.34765625 C-87.45298909 -27.24215001 -36.08668356 -28.3538228 0 0 Z " fill="#650093" transform="translate(1365.625,778.25)"/>
<path d="M0 0 C17.32620377 14.40810629 28.66831018 37.73874646 31.25390625 59.9296875 C33.55776937 89.41320915 29.48310362 119.25963516 9.76171875 142.62890625 C2.3896192 150.83020504 -4.7872919 157.71525492 -14.4609375 163.1015625 C-15.34910156 163.62363281 -16.23726562 164.14570313 -17.15234375 164.68359375 C-36.05823296 175.0700002 -58.67296923 177.43345558 -79.39453125 171.4921875 C-100.19646552 164.77703647 -118.92645246 150.32428263 -129.4609375 131.1015625 C-129.98171875 130.16828125 -130.5025 129.235 -131.0390625 128.2734375 C-139.46234395 112.36279476 -142.8298916 96.44782884 -142.77661133 78.56933594 C-142.77346193 76.36863078 -142.79695795 74.16928916 -142.82226562 71.96875 C-142.93874299 46.27614439 -134.19056272 22.12204743 -116.0703125 3.6796875 C-115.20921875 2.82890625 -114.348125 1.978125 -113.4609375 1.1015625 C-112.80609375 0.43640625 -112.15125 -0.22875 -111.4765625 -0.9140625 C-79.59856804 -31.15728802 -32.17654121 -24.82190322 0 0 Z " fill="#650093" transform="translate(1507.4609375,291.8984375)"/>
<path d="M0 0 C14.44906021 12.23268519 24.26722037 26.37648348 30.6484375 44.2421875 C30.8743457 44.87415039 31.10025391 45.50611328 31.33300781 46.15722656 C37.87701542 65.76914491 37.64498263 93.84173787 30.6484375 113.2421875 C30.40174316 113.94537109 30.15504883 114.64855469 29.90087891 115.37304688 C24.80286004 129.65626242 17.31721609 141.3947024 6.6484375 152.2421875 C5.88917969 153.01433594 5.12992188 153.78648437 4.34765625 154.58203125 C-13.46402057 171.63576438 -35.30286745 176.82990888 -59.25390625 176.51171875 C-77.4906315 175.94103042 -93.80768204 168.21942507 -107.3515625 156.2421875 C-107.96 155.77554688 -108.5684375 155.30890625 -109.1953125 154.828125 C-126.47378637 141.39803849 -136.13520379 117.48244244 -139.04248047 96.31835938 C-140.62646576 80.5535769 -140.92140318 63.53433833 -136.3515625 48.2421875 C-136.08472656 47.25605469 -135.81789063 46.26992188 -135.54296875 45.25390625 C-131.5204579 31.75614763 -124.93612458 19.561566 -115.3515625 9.2421875 C-114.5575 8.36820313 -113.7634375 7.49421875 -112.9453125 6.59375 C-83.07241764 -24.88623097 -33.5236684 -25.87262096 0 0 Z " fill="#650093" transform="translate(1007.3515625,775.7578125)"/>
<path d="M0 0 C0.10051836 4.03426587 0.17222514 8.06802545 0.21972656 12.10327148 C0.23957267 13.4696119 0.26665914 14.83587059 0.30175781 16.2019043 C0.73418812 33.49275725 -4.15991129 48.16392439 -15.43359375 61.33203125 C-30.08569143 76.56396841 -51.65617413 84.73455051 -72.5703125 85.203125 C-75.08850123 85.22428625 -77.60674325 85.23974234 -80.125 85.25 C-81.36765625 85.270625 -82.6103125 85.29125 -83.890625 85.3125 C-101.07141326 85.38423607 -115.18018931 81.086523 -127.84375 69.24609375 C-135.96029075 60.79136381 -139.96341628 50.92153826 -140.3125 39.25 C-140.03438441 26.26036591 -135.53971123 15.72493805 -127 6 C-91.89000025 -21.87179365 -39.37570116 -14.15878871 0 0 Z " fill="#650194" transform="translate(2190,390)"/>
</svg>
